<svg xmlns="http://www.w3.org/2000/svg" width="1422.859" height="1438.357" viewBox="0 0 1422.859 1438.357"><defs><style>.a{opacity:0.85;}.b,.c{fill:rgba(0,0,0,0.93);}.b{opacity:0.52;}.c{opacity:0.96;}.d,.f{fill:#3f3d56;}.e{fill:#fff;}.f{opacity:0.3;}.g,.h{fill:#f7a282;}.h{opacity:0.4;}.i{fill:#2f2e41;}.j{fill:#727171;}.k{fill:#ffc4c4;}.l{fill:#ffb8b8;}.m{fill:rgba(236,181,183,0.21);opacity:0.1;}.n{fill:#d0cde1;}.o{opacity:0.2;}.p,.s{fill:#868686;}.p{font-size:34px;font-family:MyriadPro-Bold, Myriad Pro;font-weight:700;}.q{fill:#484848;}.r{fill:#3b3b3b;font-size:35px;font-family:Roboto-Regular, Roboto;}.s{font-size:23px;font-family:Dutch801BT-ExtraBold, Dutch801 XBd BT;font-weight:800;}</style></defs><g class="a" transform="translate(3175.996 -141.056)"><g transform="translate(883 -737)"><ellipse class="b" cx="569" cy="556.5" rx="569" ry="556.5" transform="translate(-3006.634 878.056) rotate(71)"/><path class="c" d="M479.547,0C744.393,0,959.094,210.361,959.094,469.854s-214.7,469.854-479.547,469.854c-60.186,0-138.061-25.934-198.1-59.211-73.315-40.637-123.309-90.11-123.309-90.11S98.014,726.831,53.8,649.124C20.583,590.754,0,524.831,0,469.854,0,210.361,214.7,0,479.547,0Z" transform="translate(-3156.484 941.474) rotate(71)"/></g><ellipse class="d" cx="455" cy="23" rx="455" ry="23" transform="translate(-3005 1176.861)"/><path class="e" d="M200.922,73.569v676H722.256v-676Zm27.816,620c-4.956,0-8.973-4.477-8.973-10s4.017-10,8.973-10,8.973,4.477,8.973,10-4.017,10-8.973,10Zm0-49c-4.956,0-8.973-4.477-8.973-10s4.017-10,8.973-10,8.973,4.477,8.973,10-4.017,10-8.973,10Zm0-48c-4.956,0-8.973-4.477-8.973-10s4.017-10,8.973-10,8.973,4.477,8.973,10-4.017,10-8.973,10Zm0-49c-4.956,0-8.973-4.477-8.973-10s4.017-10,8.973-10,8.973,4.477,8.973,10-4.017,10-8.973,10Zm0-49c-4.956,0-8.973-4.477-8.973-10s4.017-10,8.973-10,8.973,4.477,8.973,10-4.017,10-8.973,10Zm0-48c-4.956,0-8.973-4.477-8.973-10s4.017-10,8.973-10,8.973,4.477,8.973,10-4.017,10-8.973,10Zm0-49c-4.956,0-8.973-4.477-8.973-10s4.017-10,8.973-10,8.973,4.477,8.973,10-4.017,10-8.973,10Zm0-49c-4.956,0-8.973-4.477-8.973-10s4.017-10,8.973-10,8.973,4.477,8.973,10-4.017,10-8.973,10Zm0-48c-4.956,0-8.973-4.477-8.973-10s4.017-10,8.973-10,8.973,4.477,8.973,10-4.017,10-8.973,10Zm0-49c-4.956,0-8.973-4.477-8.973-10s4.017-10,8.973-10,8.973,4.477,8.973,10-4.017,10-8.973,10Zm0-49c-4.956,0-8.973-4.477-8.973-10s4.017-10,8.973-10,8.973,4.477,8.973,10-4.017,10-8.973,10Zm0-47c-4.956,0-8.973-4.477-8.973-10s4.017-10,8.973-10,8.973,4.477,8.973,10-4.017,10-8.973,10Z" transform="translate(-3075.309 427.431)"/><path class="f" d="M660.947,51.338v-2H201.308V0h-1.795V49.338h-59.9v2h59.9V98h-59.9v2h59.9v46.662h-59.9v2h59.9v46.661h-59.9v2h59.9v46.661h-59.9v2h59.9v46.662h-59.9v2h59.9v46.661h-59.9v2h59.9v46.662h-59.9v2h59.9V438.63h-59.9v2h59.9v46.661h-59.9v2h59.9v46.662h-59.9v2h59.9v46.661h-59.9v2h59.9v46.661h-59.9v2h59.9V676h1.795V635.275H660.947v-2H201.308V586.614H660.947v-2H201.308V537.953H660.947v-2H201.308V489.291H660.947v-2H201.308V440.63H660.947v-2H201.308V391.969H660.947v-2H201.308V343.307H660.947v-2H201.308V294.646H660.947v-2H201.308V245.984H660.947v-2H201.308V197.323H660.947v-2H201.308V148.662H660.947v-2H201.308V100H660.947V98H201.308V51.338Z" transform="translate(-3015 501)"/><path class="g" d="M332.363,189.821q-11.574,13.5-23.148,0c-6.326-7.529-9.869-17.961-9.793-28.835V73.569h42.734v87.417c.076,10.874-3.467,21.305-9.793,28.835Z" transform="translate(-3098.043 427.431)"/><ellipse class="d" cx="178.043" cy="9" rx="178.043" ry="9" transform="translate(-2464.705 1237)"/><circle class="h" cx="14.92" cy="14.92" r="14.92" transform="translate(-2500.888 1133.244)"/><circle class="h" cx="10.466" cy="10.466" r="10.466" transform="translate(-2524.047 1144.824)"/><circle class="d" cx="12" cy="12" r="12" transform="translate(-2145 835)"/><circle class="g" cx="12" cy="12" r="12" transform="translate(-2097 835)"/><path class="d" d="M576.048,317s33-14.379,48.5.81S583.048,328,576.048,317Z" transform="translate(-2931.048 471)"/><path class="i" d="M633.03,248.8C621.94,230.067,600,229.193,600,229.193s-21.38-2.734-35.094,25.8c-12.783,26.6-30.426,52.284-2.84,58.511L567.048,298l3.086,16.663a107.923,107.923,0,0,0,11.8.2c29.542-.954,57.676.279,56.771-10.322C637.5,290.451,643.7,266.835,633.03,248.8Z" transform="translate(-2931.048 471)"/><ellipse class="j" cx="56" cy="13" rx="56" ry="13" transform="translate(-2384.5 980)"/><rect class="i" width="63.148" height="2" transform="translate(-2346.545 1157.163) rotate(-4.229)"/><rect class="i" width="2" height="22.825" transform="matrix(0.482, -0.876, 0.876, 0.482, -2373.979, 1147.375)"/><rect class="i" width="47" height="2" transform="translate(-2363.5 1138.5)"/><path class="i" d="M241.5,662.616l-2-.143,15-244.041,2,.143Z" transform="translate(-2623 582.952)"/><path class="i" d="M315.5,674.5l-10-251.941,2-.108,10,251.941Z" transform="translate(-2623 571.049)"/><rect class="i" width="2" height="244.783" transform="matrix(0.997, -0.082, 0.082, 0.997, -2290.644, 1001.63)"/><path class="k" d="M648.548,588.5s-14,26-23,26-8,17-6,21,7,13-1,26c-2.794,4.541-2.294,9.692-.461,14.473,5.138,13.4,25.124,9.337,24.486-5q-.011-.237-.026-.477c-1-16,7-41,15-47s15-22,15-22Z" transform="translate(-2931.048 471)"/><path class="k" d="M552.548,582.5s14,26,23,26,8,17,6,21-7,13,1,26c2.794,4.541,2.294,9.692.461,14.473-5.138,13.4-25.124,9.337-24.486-5q.011-.237.026-.477c1-16-7-41-15-47s-15-22-15-22Z" transform="translate(-2931.048 471)"/><path class="i" d="M563.548,454.5l-6,13s-88,29-80,63,47,87,53,85,38-8,39-25-23-47-23-47l33-30,48.02-1,40.98,31s-43,38-24,53,47,25,51,19,49-95,42-103-78-38-78-38l-19-27-74-4Z" transform="translate(-2931.048 471)"/><path class="l" d="M581.548,289.5s5,33-5,37,20,21,20,21h17l11-23s-10-18-4-35S581.548,289.5,581.548,289.5Z" transform="translate(-2931.048 471)"/><path class="m" d="M581.548,289.5s5,33-5,37,20,21,20,21h17l11-23s-10-18-4-35S581.548,289.5,581.548,289.5Z" transform="translate(-2931.048 471)"/><path class="n" d="M574.548,317.5s11,12,13,14,11,13,30-3,21,3,21,3v120s-16-7-29,0-40-2-40-2l-5-124Z" transform="translate(-2931.048 471)"/><path class="d" d="M581.893,317.5s-9.345-4-17.345,0-36,24-34,33,28,72,10,102-21,38-21,38l44-23s34-21,31-34S581.893,317.5,581.893,317.5Z" transform="translate(-2931.048 471)"/><path class="d" d="M621.56,317.5s20.988,2,21.988,4,31.5,10.5,29.5,19.5-29.5,89.5-17.5,104.5,32,36,25,38-19-3-31,0-40-22-37-49S612.571,324.5,621.56,317.5Z" transform="translate(-2931.048 471)"/><path class="k" d="M616.548,509.5s-11,23,0,25,19-13,19-17S616.548,509.5,616.548,509.5Z" transform="translate(-2931.048 471)"/><path class="i" d="M272.641,657.413l-2.141-.049,6.422-236.888,2.141.049Z" transform="translate(-2623 588.111)"/><ellipse class="l" cx="2" cy="4" rx="2" ry="4" transform="translate(-2302 743)"/><ellipse class="l" cx="2" cy="4" rx="2" ry="4" transform="translate(-2361 743)"/><path class="d" d="M648.548,330.5s25,0,24,10-34,182-34,182-14-13-26-10Z" transform="translate(-2931.048 471)"/><path class="o" d="M557.048,363l22.5,87.991S569.048,374,557.048,363Z" transform="translate(-2931.048 471)"/><path class="o" d="M644.565,350.636,621.809,465.68S629.082,357.272,644.565,350.636Z" transform="translate(-2931.048 471)"/><circle class="k" cx="29" cy="29" r="29" transform="translate(-2358.5 718.5)"/><path class="i" d="M320.079,123,298.4,111.644l-29.933,4.645-6.193,27.353,15.416-.593L282,133v9.884l7.114-.274,4.128-16,2.581,17.031,25.289-.516Z" transform="translate(-2623 595)"/><path class="i" d="M772.631,774.02l-2-.039a463.831,463.831,0,0,1,7.1-66.287c8.648-46.881,23.029-77.67,42.743-91.512l1.148,1.637C775.57,650.152,772.654,772.784,772.631,774.02Z" transform="translate(-2931.048 471)"/><path class="i" d="M797.631,773.541l-2-.039c.043-2.215,1.293-54.414,21.843-68.842l1.148,1.637C798.9,720.143,797.641,773.009,797.631,773.541Z" transform="translate(-2931.048 471)"/><circle class="g" cx="10" cy="10" r="10" transform="translate(-2108 1068)"/><circle class="g" cx="10" cy="10" r="10" transform="translate(-2113 1155)"/><path class="i" d="M792.97,623.995c1.879,12-3.019,22.741-3.019,22.741s-7.945-8.726-9.825-20.73,3.019-22.741,3.019-22.741S791.09,611.991,792.97,623.995Z" transform="translate(-2931.048 471)"/><path class="i" d="M825.657,653.148c-11.493,3.942-22.919.99-22.919.99s7.208-9.344,18.7-13.286,22.919-.99,22.919-.99S837.15,649.206,825.657,653.148Z" transform="translate(-2931.048 471)"/><path class="i" d="M826.026,729.31a31.135,31.135,0,0,1-16.064.694A28.374,28.374,0,0,1,839.134,720a31.133,31.133,0,0,1-13.108,9.313Z" transform="translate(-2931.048 471)"/><rect class="d" width="140" height="2" transform="translate(-2209 859)"/><rect class="d" width="2" height="18.5" transform="translate(-2171 841)"/><rect class="d" width="2" height="18.5" transform="translate(-2110 841)"/><path class="k" d="M571.548,508.5v10s-5,23,11,22,6-28,6-28l-1-9Z" transform="translate(-2931.048 471)"/><path class="d" d="M551.548,333.5s-25,5-25,20,36,159,41,159,24-3,24-8S551.548,333.5,551.548,333.5Z" transform="translate(-2931.048 471)"/><path class="d" d="M325.981,149.391q-9.332,8.8-18.664,0a25.8,25.8,0,0,1-7.9-18.807V73.569h34.456v57.015a25.8,25.8,0,0,1-7.9,18.807Z" transform="translate(-3045.309 427.431)"/><text class="p" transform="translate(-2808 789)"><tspan x="0" y="0">It&apos;s </tspan><tspan class="q" y="0">SAKSHI CHOUDHARY</tspan><tspan y="0">.</tspan><tspan x="0" y="45"></tspan></text><text class="r" transform="translate(-2808 888)"><tspan x="0" y="0">I am a Frontend </tspan><tspan x="0" y="47">Developer, UI/UX </tspan><tspan x="0" y="94">Developer &amp; a Machine</tspan><tspan x="0" y="141">Learning Researcher.</tspan><tspan x="0" y="188"></tspan></text><text class="s" transform="translate(-2808 740)"><tspan x="0" y="0">HEY,</tspan></text></g></svg>