<svg xmlns="http://www.w3.org/2000/svg" width="1240.333" height="773.366" viewBox="0 0 1240.333 773.366">
  <g id="girl-sitting2" transform="translate(-1550.158 417.366)">
    <ellipse id="Ellipse_47" data-name="Ellipse 47" cx="7.5" cy="8" rx="7.5" ry="8" transform="translate(1657 -267)" fill="#6c63ff"/>
    <path id="Path_170" data-name="Path 170" d="M1228.061,496.11l-124.686,68.87,110.355-96.3a727.29,727.29,0,0,0-60.254-92.53L612.714,533.007l488.46-217.451a643.453,643.453,0,0,0-70.931-63.095L206.25,407.352C118.762,535.026,71.07,693.619,71,857.1H1311.337c-.051-126.785-28.777-251.308-83.276-360.986Z" transform="translate(1479.155 -561.098)" fill="#ebe6e6"/>
    <path id="Path_171" data-name="Path 171" d="M952,241.389c-86.575-46.133-181.656-70.038-277.98-69.889-196.043,0-371.315,97.12-487.732,249.715C385.639,373.492,732.728,290.884,952,241.389Z" transform="translate(1500.997 -588.865)" fill="#ebe6e6"/>
    <g id="Group_13" data-name="Group 13" transform="translate(-326 31)">
      <path id="Path_172" data-name="Path 172" d="M1067,666.5c0,15.464-143.717,62-321,62s-321-46.536-321-62,143.717,6,321,6S1067,651.036,1067,666.5Z" transform="translate(2003.997 -403.499)" fill="#3f3d56"/>
      <path id="Path_173" data-name="Path 173" d="M1067,666.5c0,15.464-143.717,62-321,62s-321-46.536-321-62,143.717,6,321,6S1067,651.036,1067,666.5Z" transform="translate(2003.997 -403.499)" opacity="0.1"/>
      <ellipse id="Ellipse_41" data-name="Ellipse 41" cx="321" cy="28" rx="321" ry="28" transform="translate(2428.994 235.001)" fill="#3f3d56"/>
      <path id="Path_174" data-name="Path 174" d="M656.644,438.626s12.911,20.477,8.3,26.021,34.593,5.683,34.593,5.683-5.889-29.788-4.156-36.643Z" transform="translate(2003.997 -403.499)" fill="#ffb8b8"/>
      <path id="Path_175" data-name="Path 175" d="M656.644,438.626s12.911,20.477,8.3,26.021,34.593,5.683,34.593,5.683-5.889-29.788-4.156-36.643Z" transform="translate(2003.997 -403.499)" opacity="0.1"/>
      <circle id="Ellipse_42" data-name="Ellipse 42" cx="40.485" cy="40.485" r="40.485" transform="translate(2640.79 -38.421)" fill="#2f2e41"/>
      <path id="Path_176" data-name="Path 176" d="M701.494,453.5v24l24-5-2-17Z" transform="translate(2075 -231.999)" fill="#ffb8b8"/>
      <path id="Path_177" data-name="Path 177" d="M857.5,629l67,11-17,25s-47-16-59-16S857.5,629,857.5,629Z" transform="translate(2003.997 -403.499)" fill="#ffb8b8"/>
      <path id="Path_178" data-name="Path 178" d="M705.5,581s50-58,66-55,23,21,23,21l9,89s-32,3-32,0-6-67-6-67-47,104-72,35Z" transform="translate(2003.997 -403.499)" fill="#2f2e41"/>
      <path id="Path_179" data-name="Path 179" d="M624.5,620s1,50,31,53,63-20,63-20l54-25.87s64,33.87,83,24.87c0,0,20-21,7-27s-1,0-1,0l-77-40s-15-4-41,7-61,16-61,16Z" transform="translate(2003.997 -403.499)" fill="#2f2e41"/>
      <circle id="Ellipse_43" data-name="Ellipse 43" cx="30" cy="30" r="30" transform="translate(2647.494 -14.499)" fill="#ffb8b8"/>
      <path id="Path_180" data-name="Path 180" d="M717.5,503l-2,42s1,55-8,59c-4.55,2.02-13.69,6.08-22.14,10.52-6.34,3.32-12.29,6.84-15.61,9.87A11.194,11.194,0,0,0,667.5,627c-4,7-30,6-36,1s-2,6-7,8c-4.84,1.94-11.55-13.92-7.44-37.6.13-.79.28-1.59.44-2.4,4.59-22.95-2.62-77.92-1.51-99.16a37.37,37.37,0,0,1,.51-4.84c3-16,41.28-48.56,48.44-34.69,8.82,17.12,29.08,1.48,32.56-6.31,20-1,27,23,27,23Z" transform="translate(2003.997 -403.499)" fill="#3f3d56"/>
      <path id="Path_181" data-name="Path 181" d="M798.5,640s-16,6-21,5-10,3-10,9-6,20,3,21,46-1,54,2c0,0,36,1,33-14s-18-14-18-14S798.5,647,798.5,640Z" transform="translate(2003.997 -403.499)" fill="#2f2e41"/>
      <path id="Path_182" data-name="Path 182" d="M915.5,643s2-6,5-6,27,4,30,3,38-3,32,14-26,19-26,19-36-4-41-3-23,0-20-5S917.5,651,915.5,643Z" transform="translate(1975.997 -409.499)" fill="#2f2e41"/>
      <path id="Path_183" data-name="Path 183" d="M824.471,499.363l5.486,22.631a1.414,1.414,0,0,1-.027.764l-24.886,77.77a1.414,1.414,0,0,1-2.751-.271l-3.443-30.3a1.414,1.414,0,0,1,.06-.6l22.843-70.1a1.414,1.414,0,0,1,2.718.1Z" transform="translate(2003.997 -403.499)" fill="#d0cde1"/>
      <path id="Path_184" data-name="Path 184" d="M751.45,329.775l5.065,19.416L734.565,420.1,729.5,398.155Z" transform="translate(2075 -231.999)" fill="#f2f2f2"/>
      <path id="Path_185" data-name="Path 185" d="M711.862,606.8c.844,2.533,87.8-.844,88.641-1.688a18.322,18.322,0,0,0,1.857-3.377c.794-1.688,1.52-3.377,1.52-3.377L800.5,571.023l-86.109-3.056s-2.153,23.165-2.592,33.768a25.33,25.33,0,0,0,.059,5.065Z" transform="translate(2003.997 -403.499)" fill="#d0cde1"/>
      <path id="Path_186" data-name="Path 186" d="M718.526,403.22l1.688,23.638H682.225V403.22Z" transform="translate(2075 -231.999)" opacity="0.1"/>
      <path id="Path_187" data-name="Path 187" d="M669.562,410.818l.227-.045-1.071,10.176H647.612V410.818Z" transform="translate(2075 -231.999)" opacity="0.1"/>
      <path id="Path_188" data-name="Path 188" d="M711.862,606.8c.844,2.533,87.8-.844,88.641-1.688a18.322,18.322,0,0,0,1.857-3.377H711.8a25.33,25.33,0,0,0,.059,5.065Z" transform="translate(2003.997 -403.499)" opacity="0.1"/>
      <path id="Path_189" data-name="Path 189" d="M698.409,333.5a22.13,22.13,0,0,1-12.769,8.778c-8.929,2.391-.073,15.809-.073,15.809s-3.22-4.879,1.425-10.047S699.112,339.34,698.409,333.5Z" transform="translate(2008.997 -396.499)" fill="#2f2e41"/>
      <circle id="Ellipse_44" data-name="Ellipse 44" cx="11.283" cy="11.283" r="11.283" transform="translate(2676.699 -53.476)" fill="#2f2e41"/>
      <path id="Path_190" data-name="Path 190" d="M698.39,370.762c-9.2-3.479-24.513-5.243-32.392-4.037l1.081-7.891c7.575,3.915,22.82,5.755,32.392,4.037Z" transform="translate(2003.997 -403.499)" fill="#3f3d56"/>
      <path id="Path_191" data-name="Path 191" d="M680.592,373.587s-11.527,19.433-38.332,26.708-.219,48.1-.219,48.1-9.668-14.846,4.277-30.567S682.7,391.357,680.592,373.587Z" transform="translate(2003.997 -404.498)" fill="#2f2e41"/>
      <path id="Path_192" data-name="Path 192" d="M681.507,372.422s11.074,26.336,23.231,28.826,11.235,44.1-7.777,50.344c0,0,13.864-24.4,2.013-40.757S679.64,381.54,681.507,372.422Z" transform="translate(2003.997 -403.499)" fill="#2f2e41"/>
      <path id="Path_193" data-name="Path 193" d="M685.357,614.52c-2.47,4.67-5.37,9.52-5.86,11.48-.33,1.33-3.99.56-9.75-1.61-11.55-4.37-31.57-14.38-50.25-24.39a15.776,15.776,0,0,1-2.44-1.6c.13-.79.28-1.59.44-2.4,4.59-22.95-2.62-77.92-1.51-99.16L624.5,494l17,16v68s44,24,47,26C690.027,605.02,687.917,609.67,685.357,614.52Z" transform="translate(2003.997 -403.499)" opacity="0.1"/>
      <path id="Path_194" data-name="Path 194" d="M722.5,560l27,14s16-17,26-4-29,17-29,17-34-8-35-19S722.5,560,722.5,560Z" transform="translate(2003.997 -403.499)" fill="#ffb8b8"/>
      <path id="Path_195" data-name="Path 195" d="M677.5,597l16,4s18-22,37-14-24,24-24,24-23,12-32,2S677.5,597,677.5,597Z" transform="translate(2003.997 -403.499)" fill="#ffb8b8"/>
      <path id="Path_196" data-name="Path 196" d="M714.194,465c1.113,1,13.357,9,13.357,9s3.339,38-1.113,46-7.792,8-4.453,12,7.792,1,3.339,8-8.9,6-5.566,9,2.226,4,2.226,4l13.357,10s-8.2,11.726-18.568,10.863S697.5,528,697.5,528Z" transform="translate(2003.997 -403.499)" fill="#3f3d56"/>
      <path id="Path_197" data-name="Path 197" d="M624.5,489l-9,3s-24,88,4,103,59,30,60,26,12-20,9-22-47-26-47-26V505Z" transform="translate(2003.997 -403.499)" fill="#3f3d56"/>
      <path id="Path_198" data-name="Path 198" d="M566.994,354l-2,48,53,25-49-25Z" transform="translate(2075 -231.999)" opacity="0.1"/>
    </g>
    <rect id="Rectangle_25" data-name="Rectangle 25" width="58" height="6" transform="translate(2321.994 -94.126)" fill="#6c63ff" opacity="0.3"/>
    <rect id="Rectangle_26" data-name="Rectangle 26" width="54.865" height="6" transform="translate(2323.994 -82.126)" fill="#6c63ff" opacity="0.3"/>
    <rect id="Rectangle_27" data-name="Rectangle 27" width="39.973" height="6" transform="translate(2330.994 -69.126)" fill="#6c63ff" opacity="0.3"/>
    <rect id="Rectangle_30" data-name="Rectangle 30" width="74" height="66" transform="translate(2313.994 -170.126)" fill="#3f3d56"/>
    <path id="Path_203" data-name="Path 203" d="M444.355,538.095l-.976-.019c.021-1.081.631-26.561,10.662-33.6l.561.8C444.976,512.03,444.36,537.835,444.355,538.095Z" transform="translate(1896.997 -642.499)" fill="#6c63ff"/>
    <circle id="Ellipse_49" data-name="Ellipse 49" cx="4.881" cy="4.881" r="4.881" transform="translate(2351.319 -148.113)" fill="#6c63ff"/>
    <path id="Path_204" data-name="Path 204" d="M458.216,516.5a15.2,15.2,0,0,1-7.841.339,13.85,13.85,0,0,1,14.24-4.884,15.2,15.2,0,0,1-6.4,4.546Z" transform="translate(1896.997 -642.499)" fill="#6c63ff"/>
    <text id="_THIS_IS_SAKSHI_CHOUDHARY._" data-name=" THIS IS SAKSHI 
 CHOUDHARY.
" transform="translate(1614 -65)" fill="#707070" font-size="39" font-family="Dutch801BT-ExtraBold, Dutch801 XBd BT" font-weight="800"><tspan x="0" y="0" xml:space="preserve"> THIS IS </tspan><tspan y="0" fill="#6c63ff">SAKSHI </tspan><tspan fill="#6c63ff"><tspan x="0" y="47" xml:space="preserve"> CHOUDHARY</tspan><tspan y="47" fill="#707070">.</tspan></tspan><tspan x="0" y="94"></tspan></text>
    <text id="I_AM_A_FRONT_END_DEVELOPER_UI_UX_DEVELOPER_AND_A_MACHINE_LEARNING_ENTHUSIAST._" data-name="I AM A FRONT END DEVELOPER ,
UI /UX DEVELOPER AND A 
MACHINE LEARNING 
ENTHUSIAST.
" transform="translate(1627 52)" fill="#707070" font-size="39" font-family="Dutch801BT-ExtraBold, Dutch801 XBd BT" font-weight="800"><tspan x="0" y="0">I AM A FRONT END DEVELOPER ,</tspan><tspan x="0" y="47">UI /UX DEVELOPER AND A </tspan><tspan x="0" y="94">MACHINE LEARNING </tspan><tspan x="0" y="141">ENTHUSIAST.</tspan><tspan x="0" y="188"></tspan></text>
    <text id="HEY_" data-name="HEY," transform="translate(1623 -129)" fill="#6d6d6d" font-size="39" font-family="Dutch801BT-ExtraBold, Dutch801 XBd BT" font-weight="800"><tspan x="0" y="0">HEY,</tspan></text>
    <rect id="Rectangle_31" data-name="Rectangle 31" width="854.752" height="4.006" transform="translate(1598.233 -240.657)" fill="#2f2e41"/>
  </g>
</svg>
