<svg xmlns="http://www.w3.org/2000/svg" width="583.904" height="652" viewBox="0 0 583.904 652">
  <g id="girl-stool" transform="translate(-2125 394)">
    <circle id="Ellipse_31" data-name="Ellipse 31" cx="14.92" cy="14.92" r="14.92" transform="translate(2247.112 144.244)" fill="#f7a282" opacity="0.4"/>
    <circle id="Ellipse_32" data-name="Ellipse 32" cx="10.466" cy="10.466" r="10.466" transform="translate(2223.953 155.824)" fill="#f7a282" opacity="0.4"/>
    <path id="Path_139" data-name="Path 139" d="M839.05,473.261a255.44,255.44,0,0,0-17.9-224.767L413.048,305l391.09-81.506A254.562,254.562,0,0,0,602.048,124c-140.833,0-255,114.167-255,255a256.957,256.957,0,0,0,2.365,34.736Z" transform="translate(1816.952 -518)" fill="#ebe6e6"/>
    <path id="Path_140" data-name="Path 140" d="M364.092,470.81C400.95,566.274,493.584,634,602.048,634c101.778,0,189.617-59.634,230.515-145.861Z" transform="translate(1816.952 -518)" fill="#ebe6e6"/>
    <circle id="Ellipse_33" data-name="Ellipse 33" cx="12" cy="12" r="12" transform="translate(2219 -294)" fill="#3f3d56"/>
    <circle id="Ellipse_34" data-name="Ellipse 34" cx="12" cy="12" r="12" transform="translate(2651 -154)" fill="#f7a282"/>
    <rect id="Rectangle_1" data-name="Rectangle 1" width="20" height="20" transform="translate(2230 -55)" fill="#f7a282"/>
    <path id="Path_141" data-name="Path 141" d="M576.048,317s33-14.379,48.5.81S583.048,328,576.048,317Z" transform="translate(1816.952 -518)" fill="#3f3d56"/>
    <path id="Path_142" data-name="Path 142" d="M633.03,248.8C621.94,230.067,600,229.193,600,229.193s-21.38-2.734-35.094,25.8c-12.783,26.6-30.426,52.284-2.84,58.511L567.048,298l3.086,16.663a107.923,107.923,0,0,0,11.8.2c29.542-.954,57.676.279,56.771-10.322C637.5,290.451,643.7,266.835,633.03,248.8Z" transform="translate(1816.952 -518)" fill="#2f2e41"/>
    <ellipse id="Ellipse_35" data-name="Ellipse 35" cx="56" cy="13" rx="56" ry="13" transform="translate(2363.5 -9)" fill="#717172"/>
    <rect id="Rectangle_2" data-name="Rectangle 2" width="63.148" height="2" transform="translate(2401.455 168.163) rotate(-4.229)" fill="#2f2e41"/>
    <rect id="Rectangle_3" data-name="Rectangle 3" width="2" height="22.825" transform="matrix(0.482, -0.876, 0.876, 0.482, 2374.021, 158.375)" fill="#2f2e41"/>
    <rect id="Rectangle_4" data-name="Rectangle 4" width="18" height="2" transform="translate(2413.5 149.5)" fill="#2f2e41"/>
    <path id="Path_143" data-name="Path 143" d="M241.5,662.616l-2-.143,15-244.041,2,.143Z" transform="translate(2125 -406.048)" fill="#2f2e41"/>
    <path id="Path_144" data-name="Path 144" d="M315.5,674.5l-10-251.941,2-.108,10,251.941Z" transform="translate(2125 -417.951)" fill="#2f2e41"/>
    <rect id="Rectangle_5" data-name="Rectangle 5" width="2" height="244.783" transform="matrix(0.997, -0.082, 0.082, 0.997, 2457.356, 12.629)" fill="#2f2e41"/>
    <path id="Path_145" data-name="Path 145" d="M648.548,588.5s-14,26-23,26-8,17-6,21,7,13-1,26c-2.794,4.541-2.294,9.692-.461,14.473,5.138,13.4,25.124,9.337,24.486-5q-.011-.237-.026-.477c-1-16,7-41,15-47s15-22,15-22Z" transform="translate(1816.952 -518)" fill="#ffc4c4"/>
    <path id="Path_146" data-name="Path 146" d="M552.548,582.5s14,26,23,26,8,17,6,21-7,13,1,26c2.794,4.541,2.294,9.692.461,14.473-5.138,13.4-25.124,9.337-24.486-5q.011-.237.026-.477c1-16-7-41-15-47s-15-22-15-22Z" transform="translate(1816.952 -518)" fill="#ffc4c4"/>
    <path id="Path_147" data-name="Path 147" d="M563.548,454.5l-6,13s-88,29-80,63,47,87,53,85,38-8,39-25-23-47-23-47l33-30,48.02-1,40.98,31s-43,38-24,53,47,25,51,19,49-95,42-103-78-38-78-38l-19-27-74-4Z" transform="translate(1816.952 -518)" fill="#2f2e41"/>
    <path id="Path_148" data-name="Path 148" d="M581.548,289.5s5,33-5,37,20,21,20,21h17l11-23s-10-18-4-35S581.548,289.5,581.548,289.5Z" transform="translate(1816.952 -518)" fill="#ffb8b8"/>
    <path id="Path_149" data-name="Path 149" d="M581.548,289.5s5,33-5,37,20,21,20,21h17l11-23s-10-18-4-35S581.548,289.5,581.548,289.5Z" transform="translate(1816.952 -518)" fill="rgba(236,181,183,0.21)" opacity="0.1"/>
    <path id="Path_150" data-name="Path 150" d="M574.548,317.5s11,12,13,14,11,13,30-3,21,3,21,3v120s-16-7-29,0-40-2-40-2l-5-124Z" transform="translate(1816.952 -518)" fill="#d0cde1"/>
    <path id="Path_151" data-name="Path 151" d="M581.893,317.5s-9.345-4-17.345,0-36,24-34,33,28,72,10,102-21,38-21,38l44-23s34-21,31-34S581.893,317.5,581.893,317.5Z" transform="translate(1816.952 -518)" fill="#3f3d56"/>
    <path id="Path_152" data-name="Path 152" d="M621.56,317.5s20.988,2,21.988,4,31.5,10.5,29.5,19.5-29.5,89.5-17.5,104.5,32,36,25,38-19-3-31,0-40-22-37-49S612.571,324.5,621.56,317.5Z" transform="translate(1816.952 -518)" fill="#3f3d56"/>
    <path id="Path_154" data-name="Path 154" d="M616.548,509.5s-11,23,0,25,19-13,19-17S616.548,509.5,616.548,509.5Z" transform="translate(1816.952 -518)" fill="#ffc4c4"/>
    <path id="Path_155" data-name="Path 155" d="M272.641,657.413l-2.141-.049,6.422-236.888,2.141.049Z" transform="translate(2125 -400.889)" fill="#2f2e41"/>
    <ellipse id="Ellipse_36" data-name="Ellipse 36" cx="2" cy="4" rx="2" ry="4" transform="translate(2446 -246)" fill="#ffb8b8"/>
    <ellipse id="Ellipse_37" data-name="Ellipse 37" cx="2" cy="4" rx="2" ry="4" transform="translate(2387 -246)" fill="#ffb8b8"/>
    <path id="Path_156" data-name="Path 156" d="M648.548,330.5s25,0,24,10-34,182-34,182-14-13-26-10Z" transform="translate(1816.952 -518)" fill="#3f3d56"/>
    <path id="Path_158" data-name="Path 158" d="M557.048,363l22.5,87.991S569.048,374,557.048,363Z" transform="translate(1816.952 -518)" opacity="0.2"/>
    <path id="Path_159" data-name="Path 159" d="M644.565,350.636,621.809,465.68S629.082,357.272,644.565,350.636Z" transform="translate(1816.952 -518)" opacity="0.2"/>
    <circle id="Ellipse_38" data-name="Ellipse 38" cx="29" cy="29" r="29" transform="translate(2389.5 -270.5)" fill="#ffc4c4"/>
    <path id="Path_160" data-name="Path 160" d="M320.079,123,298.4,111.644l-29.933,4.645-6.193,27.353,15.416-.593L282,133v9.884l7.114-.274,4.128-16,2.581,17.031,25.289-.516Z" transform="translate(2125 -394)" fill="#2f2e41"/>
    <rect id="Rectangle_6" data-name="Rectangle 6" width="546" height="2" transform="translate(2135 256)" fill="#2f2e41"/>
    <path id="Path_161" data-name="Path 161" d="M772.631,774.02l-2-.039a463.831,463.831,0,0,1,7.1-66.287c8.648-46.881,23.029-77.67,42.743-91.512l1.148,1.637C775.57,650.152,772.654,772.784,772.631,774.02Z" transform="translate(1816.952 -518)" fill="#2f2e41"/>
    <path id="Path_162" data-name="Path 162" d="M797.631,773.541l-2-.039c.043-2.215,1.293-54.414,21.843-68.842l1.148,1.637C798.9,720.143,797.641,773.009,797.631,773.541Z" transform="translate(1816.952 -518)" fill="#2f2e41"/>
    <circle id="Ellipse_39" data-name="Ellipse 39" cx="10" cy="10" r="10" transform="translate(2640 79)" fill="#f7a282"/>
    <circle id="Ellipse_40" data-name="Ellipse 40" cx="10" cy="10" r="10" transform="translate(2635 166)" fill="#f7a282"/>
    <path id="Path_163" data-name="Path 163" d="M792.97,623.995c1.879,12-3.019,22.741-3.019,22.741s-7.945-8.726-9.825-20.73,3.019-22.741,3.019-22.741S791.09,611.991,792.97,623.995Z" transform="translate(1816.952 -518)" fill="#2f2e41"/>
    <path id="Path_164" data-name="Path 164" d="M825.657,653.148c-11.493,3.942-22.919.99-22.919.99s7.208-9.344,18.7-13.286,22.919-.99,22.919-.99S837.15,649.206,825.657,653.148Z" transform="translate(1816.952 -518)" fill="#2f2e41"/>
    <path id="Path_165" data-name="Path 165" d="M826.026,729.31a31.135,31.135,0,0,1-16.064.694A28.374,28.374,0,0,1,839.134,720a31.133,31.133,0,0,1-13.108,9.313Z" transform="translate(1816.952 -518)" fill="#2f2e41"/>
    <path id="Path_166" data-name="Path 166" d="M2,192H0V62H128v2H2Z" transform="translate(2125 -394)" fill="#2f2e41"/>
    <path id="Path_167" data-name="Path 167" d="M583.9,192h-2V64h-126V62h128Z" transform="translate(2125 -394)" fill="#2f2e41"/>
    <path id="Path_168" data-name="Path 168" d="M2,302H0V432H128v-2H2Z" transform="translate(2125 -394)" fill="#2f2e41"/>
    <path id="Path_169" data-name="Path 169" d="M583.9,302h-2V430h-126v2h128Z" transform="translate(2125 -394)" fill="#2f2e41"/>
    <rect id="Rectangle_7" data-name="Rectangle 7" width="140" height="2" transform="translate(2161 -271)" fill="#3f3d56"/>
    <rect id="Rectangle_8" data-name="Rectangle 8" width="2" height="18.5" transform="translate(2199 -289)" fill="#3f3d56"/>
    <rect id="Rectangle_9" data-name="Rectangle 9" width="2" height="18.5" transform="translate(2260 -289)" fill="#3f3d56"/>
    <rect id="Rectangle_10" data-name="Rectangle 10" width="140" height="2" transform="translate(2539 -130)" fill="#3f3d56"/>
    <rect id="Rectangle_11" data-name="Rectangle 11" width="2" height="18.5" transform="translate(2577 -148)" fill="#3f3d56"/>
    <rect id="Rectangle_12" data-name="Rectangle 12" width="2" height="18.5" transform="translate(2638 -148)" fill="#3f3d56"/>
    <rect id="Rectangle_13" data-name="Rectangle 13" width="140" height="2" transform="translate(2170 -36)" fill="#3f3d56"/>
    <rect id="Rectangle_14" data-name="Rectangle 14" width="2" height="18.5" transform="translate(2208 -54)" fill="#3f3d56"/>
    <rect id="Rectangle_15" data-name="Rectangle 15" width="2" height="18.5" transform="translate(2269 -54)" fill="#3f3d56"/>
    <path id="Path_153" data-name="Path 153" d="M571.548,508.5v10s-5,23,11,22,6-28,6-28l-1-9Z" transform="translate(1816.952 -518)" fill="#ffc4c4"/>
    <path id="Path_157" data-name="Path 157" d="M551.548,333.5s-25,5-25,20,36,159,41,159,24-3,24-8S551.548,333.5,551.548,333.5Z" transform="translate(1816.952 -518)" fill="#3f3d56"/>
  </g>
</svg>
