<svg xmlns="http://www.w3.org/2000/svg" width="1077.381" height="754.861" viewBox="0 0 1077.381 754.861">
  <g id="girl-standing" transform="translate(-37 -299)">
    <ellipse id="Ellipse_1" data-name="Ellipse 1" cx="455" cy="23" rx="455" ry="23" transform="translate(37 959.861)" fill="#3f3d56"/>
    <ellipse id="Ellipse_2" data-name="Ellipse 2" cx="178.043" cy="9" rx="178.043" ry="9" transform="translate(758.295 1013)" fill="#3f3d56"/>
    <ellipse id="Ellipse_3" data-name="Ellipse 3" cx="178.043" cy="9" rx="178.043" ry="9" transform="translate(255.013 1035.861)" fill="#3f3d56"/>
    <path id="Path_1" data-name="Path 1" d="M894.391,547l15.975-11.1,33.109-42.618a5.8,5.8,0,0,0-1.022-8.143h0a5.8,5.8,0,0,0-8.143,1.022L901.2,528.778Z" transform="translate(-24.309 227.431)" fill="#2f2e41"/>
    <path id="Path_2" data-name="Path 2" d="M1036.99,141.857s-20.091-18.013-47.11,15.934S920.6,208.365,910.9,221.528c0,0,40.182-16.627,54.038-23.555s13.163-5.542,13.163-5.542-18.708,13.163-22.172,26.326S955.238,243,949,256.168s119.16,9.006,119.16,9.006,12.47-21.477,9.006-43.646S1075.78,144.628,1036.99,141.857Z" transform="translate(-24.309 227.431)" fill="#2f2e41"/>
    <path id="Path_3" data-name="Path 3" d="M997.5,195.2s4.85,33.947-15.934,41.568S968.4,254.782,968.4,254.782l31.176,15.241,33.254-10.392L1043.915,243s-18.013-4.157-13.163-16.627,6.235-16.627,6.235-16.627Z" transform="translate(-24.309 227.431)" fill="#ffb9b9"/>
    <path id="Path_4" data-name="Path 4" d="M997.5,195.2s4.85,33.947-15.934,41.568S968.4,254.782,968.4,254.782l31.176,15.241,33.254-10.392L1043.915,243s-18.013-4.157-13.163-16.627,6.235-16.627,6.235-16.627Z" transform="translate(-24.309 227.431)" fill="#ac8585" opacity="0.1"/>
    <path id="Path_5" data-name="Path 5" d="M1084.79,292.193s-4.849,63.737-3.464,66.508,0,99.069,0,99.069,9.7,51.959-2.771,54.73-9.7-58.194-9.7-58.194l-12.47-80.364,1.386-79.671Z" transform="translate(-24.309 227.431)" fill="#ffb9b9"/>
    <path id="Path_6" data-name="Path 6" d="M1084.79,292.193s-4.849,63.737-3.464,66.508,0,99.069,0,99.069,9.7,51.959-2.771,54.73-9.7-58.194-9.7-58.194l-12.47-80.364,1.386-79.671Z" transform="translate(-24.309 227.431)" opacity="0.1"/>
    <path id="Path_7" data-name="Path 7" d="M949.7,484.1s-22.862,86.6-22.169,128.859,9.7,101.147,9.7,101.147,1.386,25.633-.693,28.4,10.392,14.549,10.392,14.549l13.163-7.621,4.85-5.542v-4.849s-7.621-23.555-1.386-42.26,9.7-65.815,3.464-80.364l42.953-127.474Z" transform="translate(-24.309 227.431)" fill="#ffb9b9"/>
    <path id="Path_8" data-name="Path 8" d="M948.31,745.971s-8.313-10.392-13.856-6.928-14.549,27.019-14.549,27.019-31.176,29.79-9.006,31.176,31.868-6.235,34.64-11.777,28.4-20.091,28.4-20.091-2.771-26.326-6.928-27.019-10.392,10.392-10.392,10.392Z" transform="translate(-24.309 227.431)" fill="#2f2e41"/>
    <path id="Path_9" data-name="Path 9" d="M1025.21,489.638v85.906a265.605,265.605,0,0,0,2.078,31.176c2.078,15.241-11.777,128.859-11.777,128.859l1.386,20.091,17.32-1.386,2.078-17.32,24.941-76.207s8.313-46.417,4.157-63.737,21.476-128.166,21.476-128.166Z" transform="translate(-24.309 227.431)" fill="#ffb9b9"/>
    <path id="Path_10" data-name="Path 10" d="M1011.35,750.82l5.131-1.115s3.875-8.584,8.725-6.505a52.3,52.3,0,0,1,9.643,5.778l2.134,3.921s4.849,10.392,11.085,17.32,13.163,22.169,2.771,23.555-24.248,2.078-28.4-1.386-1.386-9.006-5.542-10.392-7.621-5.542-6.928-6.928S1011.35,750.82,1011.35,750.82Z" transform="translate(-24.309 227.431)" fill="#2f2e41"/>
    <circle id="Ellipse_4" data-name="Ellipse 4" cx="33.254" cy="33.254" r="33.254" transform="translate(967.647 382.451)" fill="#ffb9b9"/>
    <path id="Path_11" data-name="Path 11" d="M967.015,242.312l9.151-3.195s-3.609,5.966,15.789,9.43,39.487,4.69,48.494-6.661c0,0,3.465-1.652,8.314,3.2s7.621,3.464,7.621,3.464l-3.464,18.013-6.928,33.254-9.006,24.94-25.633-5.542-27.712-20.091L973.25,272.1V247.161Z" transform="translate(-24.309 227.431)" fill="#fb740b"/>
    <path id="Path_12" data-name="Path 12" d="M1051.54,252.011l6.928-4.85s23.555,4.157,24.941,15.241L1065.4,297.042a39.436,39.436,0,0,1-.693,29.79c-6.928,15.934-6.235,19.4-6.235,19.4l-4.849,20.784-87.984,6.928s-3.464-8.313-4.85-9.7-1.386-6.235,0-6.235,0-2.078-1.386-4.157-2.078-2.771,0-5.542-3.464-27.712-3.464-27.712V293.578L932.38,262.4s8.313-12.47,12.47-13.856,23.93-6.85,23.93-6.85l4.474,6.588,6.235,50.143L988.5,328.91l37.921-6.443,14.731-24.733,9.7-29.1Z" transform="translate(-24.309 227.431)" fill="#fb740b"/>
    <path id="Path_13" data-name="Path 13" d="M1077.86,258.246l5.542,4.157s4.849,38.8,3.464,41.568-25.633,5.542-26.326,4.157S1077.86,258.246,1077.86,258.246Z" transform="translate(-24.309 227.431)" fill="#fb740b"/>
    <path id="Path_14" data-name="Path 14" d="M927.526,300.506s4.85,63.737,3.464,66.508,0,99.069,0,99.069-9.7,51.959,2.771,54.73,9.7-58.194,9.7-58.194l12.47-80.364-1.386-79.671Z" transform="translate(-24.309 227.431)" fill="#ffb9b9"/>
    <path id="Path_15" data-name="Path 15" d="M963.551,238.848l6.928,45.724s-6.235,67.893-4.85,81.749l1.386,4.157s-2.771-1.386-3.464,1.386,0,11.777,0,11.777-4.157,4.157-5.542,27.019S940,488.253,946.231,490.331s43.646,12.47,63.737,10.392,92.141-26.326,91.448-32.561c-.338-3.043-8.76-25.553-17.374-48.01-8.878-23.145-17.958-46.21-17.958-46.21s-6.235-10.392-6.235-11.777,8.313-6.928,6.235-12.47-13.163-63.737-13.163-63.737l7.621-41.568-10.392-2.771-7.621,40.182s-29.79,14.549-60.966,1.386l-6.928-47.11Z" transform="translate(-24.309 227.431)" fill="#2f2e41"/>
    <path id="Path_16" data-name="Path 16" d="M937.918,260.324l-5.542,2.078s-10.392,43.646-7.621,43.646,36.025,4.157,36.025,2.771-6.235-35.332-6.235-35.332Z" transform="translate(-24.309 227.431)" fill="#fb740b"/>
    <path id="Path_17" data-name="Path 17" d="M998.884,159.177s51.267,35.332,65.122,19.4-24.248-29.79-24.248-29.79l-31.868-3.464Z" transform="translate(-24.309 227.431)" fill="#2f2e41"/>
    <path id="Path_18" data-name="Path 18" d="M200.922,73.569v676H811.309v-676Zm32.568,620a10.012,10.012,0,1,1,10.506-10,10.262,10.262,0,0,1-10.506,10Zm0-49a10.012,10.012,0,1,1,10.506-10,10.262,10.262,0,0,1-10.506,10Zm0-48a10.012,10.012,0,1,1,10.506-10,10.262,10.262,0,0,1-10.506,10Zm0-49a10.012,10.012,0,1,1,10.506-10,10.262,10.262,0,0,1-10.506,10Zm0-49a10.012,10.012,0,1,1,10.506-10,10.262,10.262,0,0,1-10.506,10Zm0-48a10.012,10.012,0,1,1,10.506-10,10.262,10.262,0,0,1-10.506,10Zm0-49a10.012,10.012,0,1,1,10.506-10,10.262,10.262,0,0,1-10.506,10Zm0-49a10.012,10.012,0,1,1,10.506-10,10.262,10.262,0,0,1-10.506,10Zm0-48a10.012,10.012,0,1,1,10.506-10,10.262,10.262,0,0,1-10.506,10Zm0-49a10.012,10.012,0,1,1,10.506-10,10.262,10.262,0,0,1-10.506,10Zm0-49a10.012,10.012,0,1,1,10.506-10,10.262,10.262,0,0,1-10.506,10Zm0-47a10.012,10.012,0,1,1,10.506-10,10.262,10.262,0,0,1-10.506,10Z" transform="translate(-34.309 225.431)" fill="#f2f2f2"/>
    <path id="Path_19" data-name="Path 19" d="M720.613,51.338v-2H208.369V0h-2V49.338H139.613v2h66.756V98H139.613v2h66.756v46.662H139.613v2h66.756v46.661H139.613v2h66.756v46.661H139.613v2h66.756v46.662H139.613v2h66.756v46.661H139.613v2h66.756v46.662H139.613v2h66.756V438.63H139.613v2h66.756v46.661H139.613v2h66.756v46.662H139.613v2h66.756v46.661H139.613v2h66.756v46.661H139.613v2h66.756V676h2V635.275H720.613v-2H208.369V586.614H720.613v-2H208.369V537.953H720.613v-2H208.369V489.291H720.613v-2H208.369V440.63H720.613v-2H208.369V391.969H720.613v-2H208.369V343.307H720.613v-2H208.369V294.646H720.613v-2H208.369V245.984H720.613v-2H208.369V197.323H720.613v-2H208.369V148.662H720.613v-2H208.369V100H720.613V98H208.369V51.338Z" transform="translate(27 299)" fill="#3f3d56" opacity="0.3"/>
    <path id="Path_23" data-name="Path 23" d="M340.276,189.821q-14.354,13.5-28.708,0a39.492,39.492,0,0,1-12.146-28.835V73.569h53v87.417a39.492,39.492,0,0,1-12.146,28.835Z" transform="translate(-24.309 227.431)" fill="#fb740b"/>
    <path id="Path_25" data-name="Path 25" d="M524.012,598.179l39.74-55.52-39.84,61.62-.1,6.37c-2.78-.06-5.54-.19-8.26-.38l4.28-81.86-.03-.64.07-.11.41-7.74-39.94-61.77,40.06,55.97.1,1.64,3.23-61.85-34.19-63.83,34.61,52.98,3.37-128.24.01-.44v.43l-.56,101.12,34.04-40.09-34.18,48.8-.9,55.38,31.79-53.15-31.92,61.3-.5,30.79,46.13-73.98-46.31,84.72Z" transform="translate(284.691 372.431)" fill="#3f3d56"/>
    <text id="HEY_" data-name="HEY," transform="translate(255 480)" fill="#707070" font-size="32" font-family="SegoeScript, Segoe Script"><tspan x="0" y="0">HEY,</tspan></text>
    <text id="_THIS_IS_SAKSHI_CHOUDHARY._" data-name=" THIS IS SAKSHI CHOUDHARY.
" transform="translate(230 536)" fill="#707070" font-size="32" font-family="SegoeScript, Segoe Script"><tspan x="0" y="0" xml:space="preserve"> THIS IS SAKSHI CHOUDHARY.</tspan><tspan x="0" y="51"></tspan></text>
    <text id="I_AM_A_FRONT_END_DEVELOPER_UI_UX_DEVELOPER_AND_A_MACHINE_LEARNING_ENTHUSIAST._" data-name="I AM A FRONT END 
DEVELOPER , UI /UX 
DEVELOPER AND A 
MACHINE LEARNING 
ENTHUSIAST.
" transform="translate(247 630)" fill="#707070" font-size="31" font-family="SegoeScript, Segoe Script"><tspan x="0" y="0">I AM A FRONT END </tspan><tspan x="0" y="49">DEVELOPER , UI /UX </tspan><tspan x="0" y="98">DEVELOPER AND A </tspan><tspan x="0" y="147">MACHINE LEARNING </tspan><tspan x="0" y="196">ENTHUSIAST.</tspan><tspan x="0" y="245"></tspan></text>
  </g>
</svg>
